<svg width="914" height="400" fill="none" xmlns="http://www.w3.org/2000/svg"><style>#CL0 {fill: #00ACD7;}#CL1 {fill: #333;}@media (prefers-color-scheme: dark) {#CL0 {fill: #00ACD7;}#CL1 {fill: #EEE;}}</style><path d="M402.416 208.28c-1.363 0-2.558-.252-3.584-.756-1.027-.523-1.82-1.241-2.38-2.156-.56-.933-.84-2.016-.84-3.248v-3.64c0-1.251.28-2.333.84-3.248.56-.915 1.353-1.624 2.38-2.128 1.026-.523 2.221-.784 3.584-.784 2.034 0 3.658.513 4.872 1.54 1.213 1.027 1.857 2.427 1.932 4.2h-4.088c-.056-.653-.336-1.167-.84-1.54-.486-.373-1.111-.56-1.876-.56-.84 0-1.484.215-1.932.644-.448.429-.672 1.055-.672 1.876v3.64c0 .803.224 1.428.672 1.876.448.429 1.092.644 1.932.644.765 0 1.39-.177 1.876-.532.504-.373.784-.896.84-1.568h4.088c-.075 1.773-.719 3.173-1.932 4.2-1.214 1.027-2.838 1.54-4.872 1.54Zm9.425-.28v-15.4h4.06v3.22h1.232l-1.372.98c0-1.381.401-2.473 1.204-3.276.802-.803 1.885-1.204 3.248-1.204 1.549 0 2.762.523 3.64 1.568.877 1.045 1.316 2.483 1.316 4.312v1.54h-4.2v-1.26c0-.803-.215-1.419-.644-1.848-.43-.448-1.036-.672-1.82-.672s-1.391.252-1.82.756c-.43.485-.644 1.185-.644 2.1V208h-4.2Zm21.661.28c-1.363 0-2.548-.252-3.556-.756-1.008-.523-1.792-1.241-2.352-2.156-.541-.933-.812-2.016-.812-3.248v-3.64c0-1.232.271-2.305.812-3.22a5.598 5.598 0 0 1 2.352-2.156c1.008-.523 2.193-.784 3.556-.784 1.381 0 2.567.261 3.556.784 1.008.504 1.783 1.223 2.324 2.156.56.915.84 1.988.84 3.22v3.64c0 1.232-.28 2.315-.84 3.248-.541.915-1.316 1.633-2.324 2.156-.989.504-2.175.756-3.556.756Zm0-3.64c.821 0 1.447-.215 1.876-.644.429-.448.644-1.073.644-1.876v-3.64c0-.821-.215-1.447-.644-1.876-.429-.429-1.055-.644-1.876-.644-.803 0-1.428.215-1.876.644-.429.429-.644 1.055-.644 1.876v3.64c0 .803.215 1.428.644 1.876.448.429 1.073.644 1.876.644Zm9.733 3.36-2.324-15.4h3.22l1.204 8.4c.093.709.168 1.465.224 2.268l.14 2.016.14-2.016c.056-.803.149-1.559.28-2.268l1.484-8.4h3.192l1.428 8.4c.131.709.233 1.475.308 2.296.075.803.131 1.475.168 2.016.037-.541.075-1.213.112-2.016.037-.821.112-1.587.224-2.296l1.26-8.4h3.136l-2.352 15.4h-4.2l-1.26-8.68c-.075-.541-.159-1.185-.252-1.932a40.564 40.564 0 0 1-.196-1.848c0 .317-.028.709-.084 1.176l-.168 1.4c-.056.448-.112.849-.168 1.204l-1.288 8.68h-4.228Zm19.869.28c-1.475 0-2.679-.541-3.612-1.624-.915-1.101-1.372-2.567-1.372-4.396v-3.92c0-1.829.457-3.285 1.372-4.368.933-1.101 2.137-1.652 3.612-1.652 1.437 0 2.567.495 3.388 1.484.821.989 1.232 2.361 1.232 4.116l-1.372-2.1h.98l-.14-4.06v-4.2h4.2V208h-4.06v-3.22h-.98l1.372-2.1c0 1.736-.411 3.108-1.232 4.116-.821.989-1.951 1.484-3.388 1.484Zm1.624-3.64c.803 0 1.409-.224 1.82-.672.429-.467.644-1.129.644-1.988v-3.36c0-.859-.215-1.512-.644-1.96-.411-.467-1.017-.7-1.82-.7-.765 0-1.363.215-1.792.644-.411.429-.616 1.055-.616 1.876v3.64c0 .803.205 1.428.616 1.876.429.429 1.027.644 1.792.644Z" id="CL1"/><path d="M480.509 208.28c-.709 0-1.288-.215-1.736-.644-.429-.429-.644-.98-.644-1.652 0-.709.215-1.288.644-1.736.448-.448 1.027-.672 1.736-.672.709 0 1.279.224 1.708.672.448.448.672 1.027.672 1.736 0 .672-.224 1.223-.672 1.652-.429.429-.999.644-1.708.644Zm11.721 4.76v-2.464h4.34c.84 0 1.512-.243 2.016-.728.504-.467.756-1.111.756-1.932v-1.288l.056-2.66h-.028c-.187.952-.644 1.689-1.372 2.212-.709.523-1.624.784-2.744.784-1.587 0-2.837-.504-3.752-1.512-.915-1.027-1.372-2.427-1.372-4.2v-3.164c0-1.773.457-3.173 1.372-4.2.915-1.045 2.165-1.568 3.752-1.568 1.083 0 1.979.261 2.688.784.728.523 1.195 1.241 1.4 2.156h.028v-2.66h2.716v15.344c0 1.568-.495 2.809-1.484 3.724s-2.333 1.372-4.032 1.372h-4.34Zm3.892-8.4c.989 0 1.773-.308 2.352-.924.579-.616.868-1.484.868-2.604v-2.884c0-1.101-.289-1.96-.868-2.576-.579-.616-1.363-.924-2.352-.924-1.027 0-1.82.299-2.38.896-.56.579-.84 1.372-.84 2.38v3.36c0 1.008.28 1.811.84 2.408.56.579 1.353.868 2.38.868Zm15.725 3.584c-1.885 0-3.388-.541-4.508-1.624-1.101-1.083-1.652-2.595-1.652-4.536v-3.528c0-1.941.551-3.453 1.652-4.536 1.12-1.083 2.623-1.624 4.508-1.624 1.886 0 3.379.541 4.48 1.624 1.12 1.083 1.68 2.595 1.68 4.536v3.528c0 1.941-.56 3.453-1.68 4.536-1.101 1.083-2.594 1.624-4.48 1.624Zm0-2.436c1.046 0 1.867-.289 2.464-.868.616-.597.924-1.465.924-2.604v-4.032c0-1.139-.308-1.997-.924-2.576-.597-.597-1.418-.896-2.464-.896-1.045 0-1.876.299-2.492.896-.597.579-.896 1.437-.896 2.576v4.032c0 1.139.299 2.007.896 2.604.616.579 1.447.868 2.492.868Z" id="CL0"/></svg>